<?xml version="1.0" encoding="UTF-8" standalone="no"?>
<!DOCTYPE svg PUBLIC "-//W3C//DTD SVG 1.1//EN" "http://www.w3.org/Graphics/SVG/1.1/DTD/svg11.dtd">
<svg xmlns="http://www.w3.org/2000/svg" version="1.1" viewBox="0.00 0.00 755.00 198.00">
<path fill="#000000" d="
  M 108.31 0.00
  L 109.06 0.00
  Q 135.71 2.71 141.84 26.66
  C 144.20 35.87 142.96 48.49 143.02 58.49
  A 0.51 0.51 0.0 0 1 142.51 59.00
  L 20.48 59.00
  Q 19.92 59.00 19.87 59.55
  Q 19.50 63.61 19.51 65.00
  Q 19.92 121.17 19.69 177.43
  A 0.57 0.57 0.0 0 0 20.26 178.00
  L 196.97 178.00
  A 0.53 0.53 0.0 0 0 197.50 177.47
  L 197.50 60.00
  Q 197.50 59.00 196.50 59.00
  L 163.50 59.00
  Q 163.00 59.00 163.00 58.50
  L 163.00 40.31
  A 0.57 0.57 0.0 0 1 163.57 39.74
  L 216.53 39.74
  A 0.48 0.47 -90.0 0 1 217.00 40.22
  L 217.00 196.77
  A 0.46 0.46 0.0 0 1 216.54 197.23
  L 0.00 197.15
  L 0.00 95.44
  Q 0.63 92.06 0.00 88.69
  L 0.00 85.19
  Q 0.63 82.44 0.00 79.69
  L 0.00 39.84
  L 73.29 39.75
  A 0.82 0.82 0.0 0 0 74.11 38.88
  C 72.78 17.29 86.92 1.26 108.31 0.00
  Z"
/>
<path fill="#1b1b1a" d="
  M 326.07 109.07
  C 316.76 117.00 305.11 119.55 293.16 118.25
  C 275.25 116.30 262.39 105.05 258.57 86.97
  C 252.71 59.30 266.95 31.66 297.51 30.23
  Q 313.24 29.49 325.12 41.00
  Q 325.45 41.32 325.16 41.67
  L 316.35 52.36
  Q 315.42 53.50 314.35 52.49
  C 302.85 41.62 284.50 46.09 279.00 60.76
  C 272.11 79.11 278.47 104.28 303.02 102.24
  Q 307.01 101.91 309.99 99.97
  Q 310.50 99.64 310.50 99.02
  L 310.50 85.11
  Q 310.50 84.47 309.86 84.48
  L 296.67 84.55
  Q 296.28 84.55 296.28 84.17
  L 296.18 69.52
  A 0.30 0.29 -0.0 0 1 296.48 69.23
  L 326.70 69.26
  A 0.30 0.29 -90.0 0 1 326.99 69.56
  Q 327.01 88.28 326.98 107.00
  Q 326.98 108.30 326.07 109.07
  Z"
/>
<path fill="#1b1b1a" d="
  M 596.65 52.80
  C 589.65 46.34 580.74 44.19 572.36 49.41
  C 554.54 60.49 556.80 103.70 582.92 102.47
  C 589.18 102.18 593.43 99.20 598.30 94.89
  Q 598.72 94.52 599.07 94.95
  L 608.17 105.87
  Q 608.51 106.28 608.15 106.68
  C 598.75 117.07 585.28 120.69 571.97 117.68
  C 555.80 114.01 545.56 102.15 542.60 85.71
  C 537.99 60.14 550.13 32.49 578.95 30.43
  C 589.65 29.67 598.94 33.50 606.73 40.61
  A 0.85 0.85 0.0 0 1 606.81 41.79
  L 597.73 52.72
  A 0.75 0.74 -49.1 0 1 596.65 52.80
  Z"
/>
<path fill="#1b1b1a" d="
  M 684.46 52.48
  C 685.94 59.54 685.04 69.36 680.71 75.23
  C 671.65 87.54 657.04 88.80 642.98 87.88
  A 1.86 1.86 0.0 0 0 641.00 89.74
  L 641.00 116.25
  A 0.75 0.75 0.0 0 1 640.25 117.00
  L 622.59 117.00
  Q 622.24 117.00 622.24 116.65
  L 622.25 32.26
  Q 622.25 31.80 622.72 31.79
  Q 637.16 31.66 651.48 31.74
  C 666.13 31.82 681.01 36.09 684.46 52.48
  Z
  M 640.93 48.09
  L 641.01 71.97
  A 1.07 1.07 0.0 0 0 642.09 73.04
  L 653.29 73.00
  A 13.25 11.63 -0.2 0 0 666.49 61.33
  L 666.49 58.57
  A 13.25 11.63 -0.2 0 0 653.19 46.98
  L 641.99 47.02
  A 1.07 1.07 0.0 0 0 640.93 48.09
  Z"
/>
<path fill="#1b1b1a" d="
  M 719.49 84.20
  L 719.52 116.52
  A 0.45 0.45 0.0 0 1 719.07 116.97
  L 700.95 116.97
  A 0.45 0.45 0.0 0 1 700.50 116.52
  L 700.50 32.20
  A 0.45 0.45 0.0 0 1 700.95 31.75
  L 753.50 31.75
  A 0.45 0.45 0.0 0 1 753.95 32.20
  L 754.02 47.30
  A 0.45 0.45 0.0 0 1 753.57 47.75
  L 719.95 47.75
  A 0.45 0.45 0.0 0 0 719.50 48.20
  L 719.50 67.55
  A 0.45 0.45 0.0 0 0 719.95 68.00
  L 748.55 68.00
  A 0.45 0.45 0.0 0 1 749.00 68.45
  L 749.00 83.30
  A 0.45 0.45 0.0 0 1 748.55 83.75
  L 719.94 83.75
  A 0.45 0.45 0.0 0 0 719.49 84.20
  Z"
/>
<path fill="#1b1b1a" d="
  M 340.17 90.25
  C 337.15 67.79 354.42 45.12 378.83 51.92
  C 395.22 56.49 399.46 73.90 397.36 88.98
  A 1.19 1.19 0.0 0 1 396.18 90.00
  L 358.96 90.00
  A 0.82 0.82 0.0 0 0 358.16 91.01
  C 361.65 105.81 377.20 107.42 388.64 100.30
  Q 389.15 99.98 389.43 100.51
  L 395.11 110.88
  Q 395.39 111.40 394.89 111.72
  C 373.45 125.68 343.95 118.31 340.17 90.25
  Z
  M 358.94 77.82
  L 381.34 77.82
  A 0.74 0.74 0.0 0 0 382.08 77.08
  L 382.08 76.98
  A 11.96 11.90 90.0 0 0 370.18 65.02
  L 370.10 65.02
  A 11.96 11.90 90.0 0 0 358.20 76.98
  L 358.20 77.08
  A 0.74 0.74 0.0 0 0 358.94 77.82
  Z"
/>
<path fill="#1b1b1a" d="
  M 432.65 58.65
  Q 440.94 48.50 454.18 51.51
  Q 455.19 51.74 455.01 52.77
  L 452.31 67.37
  Q 452.19 68.02 451.54 67.90
  C 439.31 65.54 430.45 72.13 430.48 84.38
  Q 430.52 100.36 430.51 116.37
  Q 430.51 116.97 429.91 116.97
  L 412.37 116.98
  Q 411.75 116.99 411.75 116.37
  L 411.74 52.72
  Q 411.74 52.25 412.21 52.25
  L 426.54 52.25
  Q 427.14 52.25 427.20 52.85
  L 428.16 62.24
  Q 428.21 62.77 428.71 62.98
  C 429.95 63.50 431.90 59.57 432.65 58.65
  Z"
/>
<path fill="#1b1b1a" d="
  M 462.94 85.94
  C 470.18 78.87 483.55 76.60 493.35 75.78
  A 0.62 0.62 0.0 0 0 493.92 75.14
  C 493.58 59.58 473.98 67.10 466.98 71.29
  Q 466.48 71.59 466.20 71.08
  L 460.01 59.72
  A 0.64 0.64 0.0 0 1 460.25 58.87
  C 476.74 49.13 506.91 43.61 511.90 69.98
  C 512.24 71.76 512.77 73.56 512.81 75.37
  Q 513.18 95.91 512.94 116.49
  A 0.53 0.53 0.0 0 1 512.40 117.02
  L 498.13 116.94
  Q 497.54 116.94 497.43 116.36
  L 496.42 110.86
  A 0.69 0.69 0.0 0 0 495.29 110.46
  C 487.99 116.75 479.54 120.67 469.97 117.50
  C 456.72 113.10 453.29 95.35 462.94 85.94
  Z
  M 493.08 86.71
  C 486.97 87.78 474.54 90.01 475.60 98.84
  Q 475.90 101.33 478.17 102.85
  C 483.27 106.24 490.09 102.94 493.68 98.66
  Q 494.00 98.28 494.00 97.78
  L 494.00 87.49
  Q 494.00 86.55 493.08 86.71
  Z"
/>
<rect fill="#000000" x="128.50" y="74.00" width="54.00" height="19.74" rx="0.65"/>
<path fill="#000000" d="
  M 100.01 123.99
  C 111.79 134.53 113.81 147.10 113.51 162.22
  A 0.80 0.79 0.4 0 1 112.71 163.00
  L 35.26 163.00
  A 0.46 0.46 0.0 0 1 34.80 162.55
  C 34.25 145.64 36.50 133.10 49.97 122.05
  A 0.90 0.90 0.0 0 0 50.14 120.85
  C 41.31 107.98 43.05 90.60 55.42 80.79
  C 73.13 66.73 98.39 76.23 102.85 98.17
  Q 105.33 110.36 97.89 120.81
  Q 97.58 121.25 97.91 121.68
  Q 98.89 122.99 100.01 123.99
  Z"
/>
<rect fill="#000000" x="128.50" y="108.74" width="54.00" height="19.26" rx="0.52"/>
<ellipse fill="#5c5c5c" cx="0.00" cy="0.00" transform="translate(421.50,143.87) rotate(1.1)" rx="5.89" ry="5.28"/>
<path fill="#5c5c5c" d="
  M 406.42 185.48
  L 407.70 185.51
  Q 408.18 185.52 408.27 185.99
  L 409.32 192.05
  A 1.01 1.01 0.0 0 1 408.51 193.22
  C 395.97 195.46 394.55 187.31 394.52 177.09
  Q 394.46 158.68 394.51 140.25
  Q 394.52 139.75 395.02 139.75
  L 403.98 139.75
  Q 404.49 139.75 404.49 140.26
  Q 404.52 160.81 404.49 181.34
  C 404.49 182.69 405.26 183.67 405.69 184.93
  Q 405.86 185.46 406.42 185.48
  Z"
/>
<path fill="#5c5c5c" d="
  M 460.66 188.98
  C 457.75 190.40 455.22 193.25 451.32 193.54
  C 448.28 193.77 442.35 191.72 440.39 189.12
  Q 435.03 182.00 435.53 172.75
  C 436.15 161.18 447.78 148.33 459.35 158.76
  A 0.78 0.78 0.0 0 0 460.65 158.11
  Q 459.95 150.88 459.72 143.50
  C 459.55 138.03 465.82 139.72 469.29 139.76
  Q 470.24 139.77 470.24 140.72
  L 470.26 191.99
  Q 470.26 192.50 469.76 192.50
  L 462.42 192.50
  Q 461.83 192.50 461.76 191.92
  L 461.42 189.39
  Q 461.32 188.66 460.66 188.98
  Z
  M 448.31 165.84
  C 445.43 169.51 446.01 176.56 447.30 180.51
  C 449.25 186.48 456.01 186.47 459.45 181.96
  Q 459.75 181.56 459.75 181.06
  L 459.75 166.28
  Q 459.75 165.79 459.38 165.46
  C 456.20 162.70 451.02 162.38 448.31 165.84
  Z"
/>
<rect fill="#000000" x="128.50" y="143.26" width="54.00" height="19.74" rx="0.64"/>
<path fill="#5c5c5c" d="
  M 330.48 183.17
  Q 331.21 182.03 331.57 180.65
  Q 336.17 162.94 340.86 144.92
  A 1.85 1.84 -81.7 0 1 342.72 143.53
  L 350.82 143.83
  Q 351.29 143.85 351.16 144.30
  L 337.04 191.50
  A 1.35 1.35 0.0 0 1 335.76 192.47
  L 325.48 192.56
  Q 324.00 192.57 323.58 191.17
  L 309.49 144.48
  Q 309.27 143.75 310.03 143.75
  L 318.96 143.75
  A 1.34 1.33 82.7 0 1 320.25 144.75
  L 329.98 183.09
  A 0.28 0.28 0.0 0 0 330.48 183.17
  Z"
/>
<path fill="#5c5c5c" d="
  M 267.49 178.53
  C 269.34 187.35 278.80 186.75 285.26 184.21
  A 0.69 0.68 65.1 0 1 286.12 184.53
  L 288.22 188.59
  Q 288.74 189.59 287.77 190.15
  C 273.64 198.25 255.83 189.98 257.57 172.53
  C 259.85 149.62 291.35 147.85 290.52 175.05
  Q 290.47 176.73 288.80 176.94
  C 282.33 177.76 275.40 176.85 268.58 177.13
  Q 267.21 177.18 267.49 178.53
  Z
  M 268.20 170.82
  L 281.23 170.27
  A 0.73 0.73 0.0 0 0 281.93 169.51
  L 281.92 169.10
  A 6.94 6.66 87.6 0 0 274.97 162.45
  L 273.79 162.50
  A 6.94 6.66 87.6 0 0 267.43 169.71
  L 267.44 170.12
  A 0.73 0.73 0.0 0 0 268.20 170.82
  Z"
/>
<path fill="#5c5c5c" d="
  M 374.64 189.07
  C 368.10 191.52 363.16 197.02 356.35 190.84
  C 352.22 187.09 351.11 181.47 354.43 176.84
  C 358.01 171.86 366.84 169.72 372.54 169.59
  A 1.39 1.38 -7.3 0 0 373.86 167.89
  C 371.80 159.02 363.20 163.51 357.86 165.22
  Q 357.38 165.38 357.13 164.94
  L 355.08 161.37
  A 1.99 1.99 0.0 0 1 355.90 158.60
  C 366.74 153.04 383.13 152.35 383.91 168.94
  Q 384.43 180.12 383.99 192.00
  A 0.52 0.52 0.0 0 1 383.47 192.50
  L 376.17 192.50
  Q 375.54 192.50 375.53 191.87
  L 375.47 189.64
  Q 375.45 188.77 374.64 189.07
  Z
  M 363.44 178.94
  Q 361.22 181.47 362.76 183.76
  C 364.99 187.09 370.02 185.81 372.69 183.73
  Q 373.20 183.34 373.26 182.69
  L 373.90 176.16
  Q 373.96 175.50 373.30 175.45
  Q 366.95 174.93 363.44 178.94
  Z"
/>
<path fill="#5c5c5c" d="
  M 499.44 164.56
  C 495.79 160.78 489.91 163.24 484.72 165.57
  Q 484.18 165.81 483.93 165.28
  L 481.43 160.04
  Q 481.22 159.58 481.65 159.32
  C 492.89 152.56 509.86 152.20 510.90 169.30
  Q 511.26 175.17 511.24 191.99
  Q 511.24 192.50 510.73 192.50
  L 503.12 192.50
  Q 502.50 192.50 502.50 191.87
  L 502.50 189.87
  Q 502.50 189.25 501.87 189.25
  L 500.92 189.25
  Q 500.41 189.25 500.00 189.57
  C 483.48 202.72 470.64 178.81 487.31 172.29
  Q 493.45 169.89 500.03 169.45
  Q 500.53 169.42 500.62 168.92
  Q 501.06 166.24 499.44 164.56
  Z
  M 499.92 175.48
  C 496.05 175.19 487.21 177.85 489.58 183.45
  C 490.94 186.64 496.39 186.05 498.74 184.23
  C 501.15 182.35 500.67 178.73 500.45 176.00
  Q 500.41 175.51 499.92 175.48
  Z"
/>
<rect fill="#5c5c5c" x="416.49" y="155.63" width="10.02" height="36.92" rx="0.27"/>
</svg>
