<?xml version="1.0" encoding="UTF-8" standalone="no"?>
<!DOCTYPE svg PUBLIC "-//W3C//DTD SVG 1.1//EN" "http://www.w3.org/Graphics/SVG/1.1/DTD/svg11.dtd">
<svg xmlns="http://www.w3.org/2000/svg" version="1.1" viewBox="0.00 0.00 282.00 86.00">
<path fill="#000000" d="
  M 99.50 46.25
  L 99.50 10.00
  A 0.75 0.75 0.0 0 0 98.75 9.25
  L 47.24 9.25
  A 0.76 0.76 0.0 0 0 46.48 10.01
  L 46.55 40.25
  Q 46.55 40.52 46.05 40.72
  L 39.14 43.37
  Q 38.44 43.64 38.44 42.89
  Q 38.50 27.31 38.50 12.68
  C 38.50 6.31 40.18 0.84 47.32 0.81
  Q 72.90 0.68 98.50 0.78
  C 106.75 0.81 108.19 5.93 108.23 13.30
  Q 108.34 34.95 108.21 45.48
  C 108.10 54.72 102.13 55.51 94.16 55.52
  Q 87.05 55.54 79.93 55.48
  Q 79.41 55.48 79.54 54.97
  L 81.47 47.34
  A 0.78 0.77 -82.8 0 1 82.22 46.75
  L 99.00 46.75
  Q 99.50 46.75 99.50 46.25
  Z"
/>
<path fill="#000000" d="
  M 148.01 27.39
  L 155.14 9.11
  A 0.51 0.51 0.0 0 1 155.62 8.79
  L 161.57 8.74
  A 0.51 0.51 0.0 0 1 162.05 9.43
  L 151.08 37.18
  A 0.51 0.51 0.0 0 1 150.60 37.50
  L 144.53 37.50
  A 0.51 0.51 0.0 0 1 144.05 37.18
  L 132.98 9.46
  A 0.51 0.51 0.0 0 1 133.45 8.76
  L 139.52 8.74
  A 0.51 0.51 0.0 0 1 140.00 9.07
  L 147.06 27.38
  A 0.51 0.51 0.0 0 0 148.01 27.39
  Z"
/>
<path fill="#000000" d="
  M 179.71 31.25
  L 168.75 31.25
  A 0.31 0.31 0.0 0 0 168.46 31.46
  L 166.43 37.29
  A 0.31 0.31 0.0 0 1 166.14 37.50
  L 159.73 37.50
  A 0.31 0.31 0.0 0 1 159.44 37.07
  L 170.83 8.98
  A 0.31 0.31 0.0 0 1 171.12 8.79
  L 177.44 8.73
  A 0.31 0.31 0.0 0 1 177.73 8.93
  L 189.05 37.07
  A 0.31 0.31 0.0 0 1 188.76 37.50
  L 182.47 37.50
  A 0.31 0.31 0.0 0 1 182.17 37.30
  L 180.01 31.45
  A 0.31 0.31 0.0 0 0 179.71 31.25
  Z
  M 170.38 25.34
  A 0.76 0.76 0.0 0 0 171.08 26.36
  L 177.35 26.45
  A 0.76 0.76 0.0 0 0 178.08 25.44
  L 175.07 16.61
  A 0.76 0.76 0.0 0 0 173.64 16.59
  L 170.38 25.34
  Z"
/>
<path fill="#000000" d="
  M 200.23 31.75
  L 212.02 31.75
  A 0.48 0.48 0.0 0 1 212.50 32.23
  L 212.50 37.02
  A 0.48 0.48 0.0 0 1 212.02 37.50
  L 193.23 37.50
  A 0.48 0.48 0.0 0 1 192.75 37.02
  L 192.75 9.23
  A 0.48 0.48 0.0 0 1 193.23 8.75
  L 199.27 8.75
  A 0.48 0.48 0.0 0 1 199.75 9.23
  L 199.75 31.27
  A 0.48 0.48 0.0 0 0 200.23 31.75
  Z"
/>
<rect fill="#000000" x="215.25" y="8.75" width="6.50" height="28.76" rx="0.26"/>
<path fill="#000000" d="
  M 226.23 9.09
  A 0.30 0.30 0.0 0 1 226.53 8.79
  L 237.45 8.77
  A 14.34 12.83 -0.1 0 1 251.81 21.58
  L 251.81 24.56
  A 14.34 12.83 -0.1 0 1 237.49 37.41
  L 226.58 37.43
  A 0.30 0.30 0.0 0 1 226.27 37.13
  L 226.23 9.09
  Z
  M 232.57 14.73
  L 232.63 31.31
  A 0.48 0.48 0.0 0 0 233.11 31.79
  L 237.32 31.78
  A 8.22 7.93 89.8 0 0 245.22 23.53
  L 245.22 22.43
  A 8.22 7.93 89.8 0 0 237.26 14.24
  L 233.05 14.25
  A 0.48 0.48 0.0 0 0 232.57 14.73
  Z"
/>
<path fill="#000000" d="
  M 263.95 8.75
  L 270.23 8.75
  A 0.34 0.34 0.0 0 1 270.55 8.96
  L 281.80 37.03
  A 0.34 0.34 0.0 0 1 281.49 37.50
  L 275.46 37.50
  A 0.34 0.34 0.0 0 1 275.14 37.29
  L 272.77 31.46
  A 0.34 0.34 0.0 0 0 272.45 31.25
  L 261.65 31.25
  A 0.34 0.34 0.0 0 0 261.33 31.47
  L 259.19 37.28
  A 0.34 0.34 0.0 0 1 258.87 37.50
  L 252.65 37.50
  A 0.34 0.34 0.0 0 1 252.34 37.03
  L 263.63 8.96
  A 0.34 0.34 0.0 0 1 263.95 8.75
  Z
  M 263.16 25.79
  Q 262.97 26.35 263.56 26.37
  L 269.40 26.51
  Q 271.33 26.55 270.68 24.74
  L 267.98 17.22
  A 1.03 1.02 44.5 0 0 266.04 17.23
  L 263.16 25.79
  Z"
/>
<rect fill="#000000" x="-10.54" y="-2.33" transform="translate(63.86,19.13) rotate(0.1)" width="21.08" height="4.66" rx="2.27"/>
<path fill="#000000" d="
  M 89.02 28.44
  Q 94.32 32.12 93.09 38.75
  A 0.92 0.90 -84.6 0 1 92.20 39.50
  L 77.23 39.50
  A 1.02 1.01 3.5 0 1 76.22 38.37
  C 76.75 34.01 76.22 30.52 80.84 28.35
  A 0.72 0.72 0.0 0 0 81.16 27.34
  C 74.74 15.85 89.20 13.44 90.25 22.29
  C 90.44 23.93 89.27 25.31 88.58 26.60
  Q 87.98 27.71 89.02 28.44
  Z"
/>
<path fill="#000000" d="
  M 58.77 62.96
  C 61.87 62.73 72.71 61.93 74.12 64.38
  C 74.98 65.85 74.47 71.01 74.61 72.98
  Q 74.62 73.07 75.32 76.89
  C 76.74 84.62 65.14 86.58 64.41 78.73
  A 0.83 0.83 0.0 0 0 63.05 78.17
  C 58.14 82.37 57.75 81.89 52.23 79.15
  A 0.88 0.88 0.0 0 0 50.99 79.69
  Q 48.80 87.03 41.51 83.48
  Q 40.58 83.03 40.45 82.19
  Q 40.40 81.85 40.23 81.57
  Q 38.72 79.00 40.02 76.26
  A 0.77 0.77 0.0 0 0 39.19 75.17
  Q 37.91 75.40 37.07 76.08
  C 29.20 82.51 14.26 82.40 4.63 82.26
  C 2.79 82.23 1.05 80.92 1.04 79.03
  Q 0.88 54.40 1.00 42.75
  C 1.01 41.48 1.48 40.36 2.56 39.51
  C 9.24 34.31 21.40 23.14 29.89 22.79
  Q 30.46 22.76 30.47 23.34
  Q 30.57 33.35 30.49 43.26
  C 30.31 63.83 59.47 39.68 68.30 41.66
  C 74.19 42.99 75.18 50.50 70.17 53.66
  C 66.65 55.89 62.86 58.74 59.11 60.48
  Q 57.93 61.03 58.14 62.46
  Q 58.22 63.01 58.77 62.96
  Z"
/>
<rect fill="#000000" x="-8.98" y="-2.38" transform="translate(62.37,29.04) rotate(0.2)" width="17.96" height="4.76" rx="2.30"/>
<path fill="#424242" d="
  M 139.12 64.02
  C 140.09 73.52 151.10 73.01 157.24 69.49
  Q 157.75 69.20 157.75 69.79
  L 157.75 75.18
  Q 157.75 75.64 157.33 75.82
  C 144.44 81.41 129.63 75.70 132.44 59.40
  C 134.41 47.94 148.08 46.13 156.92 50.06
  Q 157.47 50.31 157.48 50.91
  L 157.54 56.12
  Q 157.55 56.81 156.94 56.48
  C 150.06 52.72 138.00 53.25 139.12 64.02
  Z"
/>
<path fill="#424242" d="
  M 168.25 69.24
  L 168.25 76.86
  Q 168.25 77.48 167.64 77.48
  L 161.86 77.54
  Q 161.25 77.54 161.25 76.93
  L 161.25 49.25
  Q 161.25 48.73 161.77 48.73
  C 170.74 48.70 186.55 46.09 184.75 60.74
  C 183.84 68.18 175.59 69.08 168.85 68.67
  Q 168.25 68.63 168.25 69.24
  Z
  M 168.24 54.71
  L 168.26 62.67
  A 0.45 0.45 0.0 0 0 168.71 63.12
  L 172.42 63.11
  A 5.34 3.58 -0.1 0 0 177.75 59.52
  L 177.75 57.82
  A 5.34 3.58 -0.1 0 0 172.40 54.25
  L 168.69 54.26
  A 0.45 0.45 0.0 0 0 168.24 54.71
  Z"
/>
<path fill="#424242" d="
  M 195.07 60.26
  L 204.42 60.24
  A 0.30 0.30 0.0 0 1 204.72 60.54
  L 204.80 65.45
  A 0.30 0.30 0.0 0 1 204.49 65.76
  L 195.03 65.72
  A 0.30 0.30 0.0 0 0 194.73 66.02
  L 194.76 77.18
  A 0.30 0.30 0.0 0 1 194.46 77.48
  L 188.55 77.54
  A 0.30 0.30 0.0 0 1 188.25 77.24
  L 188.25 49.05
  A 0.30 0.30 0.0 0 1 188.55 48.75
  L 207.98 48.75
  A 0.30 0.30 0.0 0 1 208.28 49.06
  L 208.17 53.95
  A 0.30 0.30 0.0 0 1 207.87 54.24
  L 195.00 54.25
  A 0.30 0.30 0.0 0 0 194.70 54.55
  L 194.77 59.96
  A 0.30 0.30 0.0 0 0 195.07 60.26
  Z"
/>
</svg>
